# xmcd CD database file
#
# Track frame offsets:
#	182
#	13235
#	27240
#	40700
#	54755
#	67400
#	80727
#	93797
#	106067
#	119515
#	132970
#	148362
#	162422
#	176392
#	188870
#	202020
#	215547
#	228022
#	242262
#	253782
#	268185
#
# Disc length: 3779 seconds
#
# Revision: 0
# Processed by: cddbd v1.5.1PL0 Copyright (c) Steve Scherf et al.
# Submitted via: CDex 1.51
#
DISCID=2c0ec115
DTITLE=CharlieParker - Crazeology studies
DYEAR=1994
DGENRE=Jazz
TTITLE0=Bird feathers
TTITLE1=Klact-oveeseds-tene
TTITLE2=Scrapple from the apple
TTITLE3=Out of newhere
TTITLE4=Don't blame me
TTITLE5=Drifting on a reed
TTITLE6=Quasimodo
TTITLE7=Charlies wig
TTITLE8=Bongo beep
TTITLE9=Crazeology
TTITLE10=How deep is the ocean?
TTITLE11=Relanin' a camarillo
TTITLE12=Cheers
TTITLE13=Carvin' the bird
TTITLE14=Stupendous
TTITLE15=Dexterity
TTITLE16=Bongo bop
TTITLE17=Dewey square
TTITLE18=The hymn
TTITLE19=Bird of paradise
TTITLE20=Embraceable you
EXTD=YEAR: 1994
EXTT0=
EXTT1=
EXTT2=
EXTT3=
EXTT4=
EXTT5=
EXTT6=
EXTT7=
EXTT8=
EXTT9=
EXTT10=
EXTT11=
EXTT12=
EXTT13=
EXTT14=
EXTT15=
EXTT16=
EXTT17=
EXTT18=
EXTT19=
EXTT20=
PLAYORDER=
